<svg width="22" height="39" fill="none" xmlns="http://www.w3.org/2000/svg"><path fill-rule="evenodd" clip-rule="evenodd" d="M9.64 1.096a1.499 1.499 0 0 1 1.743 0C17.88 5.741 20.826 11.31 21.011 19.3c.086 3.815-.281 7.308-1.398 10.326-1.145 3.02-3.181 5.81-6.18 8.165a1.499 1.499 0 0 1-1.335.259c-.919-.264-1.075-1.353-1.587-2.033-.511.68-.667 1.769-1.586 2.033-.46.132-.957.036-1.335-.259-2.998-2.355-5.035-5.145-6.18-8.165C.293 26.608-.074 23.116.012 19.3.198 11.31 3.142 5.741 9.64 1.096Zm3.358 33.254c1.877-1.727 3.007-3.611 3.806-5.777 1.005-2.65 1.295-5.576 1.208-9.203-.145-6.23-1.601-10.285-6.014-14.05v11.012c1.726.444 2.5 2.138 2.5 4.004 0 1.866-.774 3.56-2.5 4.004v9.009s.802.74 1 1Zm-5 0c-1.876-1.727-2.98-3.611-3.78-5.777-1.004-2.65-1.294-5.576-1.207-9.203.145-6.218 1.593-10.29 5.987-14.05v11.012c-1.725.444-2.5 2.138-2.5 4.004 0 1.866.775 3.56 2.5 4.004v9.009s-.809.75-1 1Zm2.5-16.016a2.001 2.001 0 1 0 .002 4.006 2.001 2.001 0 0 0-.002-4.006Z" fill="#fff"/></svg>