<svg width="22" height="39" fill="none" xmlns="http://www.w3.org/2000/svg"><path fill-rule="evenodd" clip-rule="evenodd" d="M9.64 1.096a1.499 1.499 0 0 1 1.743 0C17.88 5.74 20.826 11.31 21.011 19.3c.086 3.815-.281 7.308-1.398 10.326-1.145 3.02-3.181 5.81-6.18 8.165a1.499 1.499 0 0 1-1.335.259c-.919-.264-1.075-1.354-1.587-2.033-.511.68-.667 1.768-1.586 2.032-.46.133-.957.037-1.335-.258-2.998-2.356-5.035-5.146-6.18-8.165C.293 26.608-.074 23.115.012 19.3.198 11.31 3.142 5.74 9.64 1.096Zm3.358 33.254c1.877-1.727 3.007-3.612 3.806-5.778 1.005-2.65 1.295-5.575 1.208-9.203-.145-6.23-1.601-10.284-6.014-14.048v11.01c1.726.445 2.5 2.139 2.5 4.005 0 1.865-.774 3.56-2.5 4.004v9.009s.802.74 1 1Zm-5 0c-1.876-1.727-2.98-3.612-3.78-5.778-1.004-2.65-1.294-5.575-1.207-9.203.145-6.217 1.593-10.29 5.987-14.048v11.01c-1.725.445-2.5 2.139-2.5 4.005 0 1.865.775 3.56 2.5 4.004v9.009s-.809.749-1 1Zm2.5-16.017c-1.104 0-2 .897-2 2.003a2.001 2.001 0 1 0 2-2.002Z" fill="#18E"/></svg>