<svg width="22" height="39" viewBox="0 0 22 39" fill="none" xmlns="http://www.w3.org/2000/svg">
<path fill-rule="evenodd" clip-rule="evenodd" d="M9.63967 1.09609C10.1612 0.72318 10.8618 0.72318 11.3834 1.09609C17.8802 5.74135 20.8255 11.3102 21.0111 19.3C21.0968 23.1152 20.7299 26.6085 19.6133 29.6262C18.4681 32.6457 16.4315 35.4355 13.4332 37.7914C13.0549 38.0863 12.5585 38.1824 12.0976 38.0499C11.1793 37.7861 11.023 36.6965 10.5115 36.0173C9.99974 36.6969 9.84439 37.7859 8.9254 38.0499C8.46452 38.1824 7.96817 38.0863 7.58987 37.7914C4.5915 35.4355 2.55499 32.6457 1.40971 29.6262C0.293102 26.6085 -0.0737632 23.1152 0.0119281 19.3C0.197553 11.3102 3.1428 5.74135 9.63967 1.09609ZM12.9984 34.3499C14.8746 32.6232 16.0052 30.7389 16.8041 28.5725C17.8092 25.923 18.0991 22.9969 18.0119 19.3699C17.8672 13.1398 16.4108 9.08531 11.9984 5.32091V16.3319C13.7236 16.7764 14.4984 18.4703 14.4984 20.3359C14.4984 22.2016 13.7236 23.8955 11.9984 24.3399V33.3489C11.9984 33.3489 12.8001 34.0888 12.9984 34.3499ZM7.99835 34.3499C6.12206 32.6232 5.01787 30.7389 4.21893 28.5725C3.21389 25.923 2.92391 22.9969 3.01112 19.3699C3.15557 13.1522 4.60442 9.0803 8.99835 5.32091V16.3319C7.27312 16.7764 6.49835 18.4703 6.49835 20.3359C6.49835 22.2016 7.27312 23.8955 8.99835 24.3399V33.3489C8.99835 33.3489 8.18923 34.0984 7.99835 34.3499ZM10.4984 18.3339C9.39378 18.3339 8.49835 19.2302 8.49835 20.3359C8.49835 21.4416 9.39378 22.3379 10.4984 22.3379C11.6029 22.3379 12.4984 21.4416 12.4984 20.3359C12.4984 19.2302 11.6029 18.3339 10.4984 18.3339Z" fill="white"></path>
</svg>
